<?xml version="1.0" encoding="UTF-8" standalone="no"?>
<!-- Created with Inkscape (http://www.inkscape.org/) -->
<svg xmlns:inkscape="http://www.inkscape.org/namespaces/inkscape" xmlns:rdf="http://www.w3.org/1999/02/22-rdf-syntax-ns#" xmlns="http://www.w3.org/2000/svg" xmlns:sodipodi="http://sodipodi.sourceforge.net/DTD/sodipodi-0.dtd" xmlns:cc="http://creativecommons.org/ns#" xmlns:xlink="http://www.w3.org/1999/xlink" xmlns:dc="http://purl.org/dc/elements/1.1/" xmlns:svg="http://www.w3.org/2000/svg" xmlns:ns1="http://sozi.baierouge.fr" id="svg2" sodipodi:docname="New document 1" viewBox="0 0 300 300" version="1.1" inkscape:version="0.48.0 r9654">
  <defs id="defs4">
    <linearGradient id="linearGradient3820" y2="306.65" gradientUnits="userSpaceOnUse" x2="-22.857" gradientTransform="matrix(0.125 0 0 .091899 124.19 858.32)" y1="1032.4" x1="-11.429" inkscape:collect="always">
      <stop id="stop3791" style="stop-color:#f44800" offset="0"/>
      <stop id="stop3793" style="stop-color:#fdca01" offset="1"/>
    </linearGradient>
  </defs>
  <sodipodi:namedview id="base" bordercolor="#666666" inkscape:pageshadow="2" inkscape:window-y="-4" pagecolor="#ffffff" inkscape:window-height="712" inkscape:window-maximized="1" inkscape:zoom="0.35" inkscape:window-x="-4" showgrid="false" borderopacity="1.0" inkscape:current-layer="layer1" inkscape:cx="375" inkscape:cy="110" inkscape:window-width="1280" inkscape:pageopacity="0.0" inkscape:document-units="px"/>
  <g id="layer1" inkscape:label="Layer 1" inkscape:groupmode="layer" transform="translate(0 -752.36)">
    <rect id="rect3887" style="opacity:0;stroke-width:1.6555" height="298.34" width="298.34" y="753.19" x=".82774"/>
    <path id="path3797" d="m127.3 784.84c-1.2196 0.11457-3.8517 7.181-5.3361 20.438-11.634 40.176 20.136 92.19 4.84 122.99-8.0549-29.437-5.8403-55.484-22.942-86.592-9.7341-34.018-14.431-45.593-2.2036 8.2207 0.46205 10.711 11.891 81.629-3.4493 72.13 5.3682-32.083-10.481-116.49-10.684-113.23 7.0832 47.632 18.82 127.64 34.564 145.35 5.5449 8.9361 15.713 25.905 21.821 18.77 6.071 7.5603 15.843-9.1436 21.512-18.28 15.744-17.707 27.48-97.194 34.564-144.83-14.65 25.667-3.8456 78.971-10.684 113.23-15.347 9.5031-3.9029-61.308-3.4454-71.958 8.8469-46.004 7.5239-42.219-2.2082-8.2076-17.101 31.107-14.886 56.969-22.941 86.406-15.296-30.803 16.474-82.817 4.84-122.99-2.8788-25.71-10.068-28.138-2.9181-1.7268 6.7322 31.218-8.1094 56.326-18.669 82.478-10.579-26.52-25.898-51.873-19.079-83.494 3.4632-12.793 3.5637-18.819 2.418-18.711z" sodipodi:nodetypes="sccccccccccccccccccs" style="stroke:#e4ed03;stroke-width:.23845;fill:#fdca01" inkscape:connector-curvature="0"/>
    <path id="path2985" sodipodi:nodetypes="sccccccccccccccccccs" style="stroke:#e4ed03;stroke-width:.17149;fill:url(#linearGradient3820)" inkscape:connector-curvature="0" d="m125.87 846.95c-1.2196 0.0593-3.8517 3.7143-5.3361 10.571-11.634 20.781 20.136 63.859 4.84 79.791-8.0549-15.226-2.3209-30.807-16.782-44.413-8.2311-14.879-12.203-19.942-1.8634 3.5956 0.39072 4.6849 5.3905 42.503-9.9495 37.59 5.3682-16.595-10.481-60.253-10.684-58.566 7.0832 24.637-21.326 56.057 11.313 75.044 11.495 9.5822 33.978 43.892 46.64 36.241 12.586 8.107 31.441-25.918 43.194-35.715 32.638-18.987 7.0868-29.927 11.313-75.044-14.65 13.276-3.8456 40.847-10.684 58.566-15.347 4.9154-10.332-32.938-9.9456-37.595 7.4809-20.121 6.3622-18.466-1.8672-3.5898-14.461 13.606-8.7269 29.187-16.782 44.413-15.296-15.933 16.474-59.011 4.84-79.791-2.8788-13.298-10.068-14.554-2.9181-0.89315 6.7322 16.147-8.1094 45.308-18.669 58.836-10.579-13.717-25.898-43.005-19.079-59.361 3.4632-6.617 3.5637-9.7339 2.418-9.6781z"/>
    <path id="path3869" style="stroke:#000000;stroke-width:.052227px;fill:#816647" inkscape:connector-curvature="0" d="m147.14 971.84c-2.2634-0.0747-32.889-5.2174-32.889-5.2174l-2.419 3.9242 58.493 3.3078 1.2041-4.8989z"/>
    <path id="path3871" d="m136.22 971.84c2.2634-0.0747 32.889-5.2174 32.889-5.2174l2.419 3.9242-58.493 3.3078-1.2041-4.8989z" style="stroke:#000000;stroke-width:.052227px;fill:#816647" inkscape:connector-curvature="0"/>
    <path id="path3873" d="m147.14 976.26c-2.2634-0.0747-32.889-5.2174-32.889-5.2174l-2.419 3.9242 58.493 3.3078 1.2041-4.8989z" style="stroke:#000000;stroke-width:.052227px;fill:#816647" inkscape:connector-curvature="0"/>
    <path id="path3875" style="stroke:#000000;stroke-width:.052227px;fill:#816647" inkscape:connector-curvature="0" d="m136.22 976.26c2.2634-0.0747 32.889-5.2174 32.889-5.2174l2.419 3.9242-58.493 3.3078-1.2041-4.8989z"/>
    <path id="path3822" d="m139.55 964.88c-4.2858 1.6608-60.002 34.877-60.002 34.877l-6.7859-8.6362 110-46.503 5.0002 11.958z" style="stroke:#000000;stroke-width:.12055px;fill:#816647" inkscape:connector-curvature="0"/>
    <path id="path3824" style="stroke:#000000;stroke-width:.12055px;fill:#816647" inkscape:connector-curvature="0" d="m143.48 963.22c4.2858 1.6608 60.002 34.877 60.002 34.877l6.7859-8.6363-110-46.503-5.0001 11.958z"/>
    <path id="path3816" style="stroke:#000000;stroke-width:.12055px;fill:#816647" inkscape:connector-curvature="0" d="m139.55 977.83c-4.2858-1.6608-60.002-34.877-60.002-34.877l-6.7859 8.6363 110 46.503 5.0002-11.958z"/>
    <path id="path3818" d="m143.48 979.49c4.2858-1.6608 60.002-34.877 60.002-34.877l6.7859 8.6363-110.01 46.51-4.997-11.96z" style="stroke:#000000;stroke-width:.12055px;fill:#816647" inkscape:connector-curvature="0"/>
    <path id="path3826" style="stroke:#000000;stroke-width:.12055px;fill:#816647" inkscape:connector-curvature="0" d="m139.55 964.88c-4.2858 1.6608-60.002 34.877-60.002 34.877l-6.7859-8.6362 110-46.503 5.0002 11.958z"/>
    <path id="path3828" d="m143.48 963.22c4.2858 1.6608 60.002 34.877 60.002 34.877l6.7859-8.6363-110-46.503-5.0001 11.958z" style="stroke:#000000;stroke-width:.12055px;fill:#816647" inkscape:connector-curvature="0"/>
    <path id="path3841" style="stroke:#000000;stroke-width:.10445px;fill:#816647" inkscape:connector-curvature="0" d="m140.24 959.24c-4.3309 1.2339-60.632 25.912-60.632 25.912l-6.8572-6.4164 111.16-34.55 5.0527 8.8843z"/>
    <path id="path3843" d="m144.21 958c4.3309 1.2339 60.632 25.912 60.632 25.912l6.8572-6.4164-111.16-34.55-5.0527 8.8843z" style="stroke:#000000;stroke-width:.10445px;fill:#816647" inkscape:connector-curvature="0"/>
    <path id="path3845" d="m140.24 968.86c-4.3309-1.2339-60.632-25.912-60.632-25.912l-6.8572 6.4164 111.16 34.55 5.0527-8.8843z" style="stroke:#000000;stroke-width:.10445px;fill:#816647" inkscape:connector-curvature="0"/>
    <path id="path3847" style="stroke:#000000;stroke-width:.10445px;fill:#816647" inkscape:connector-curvature="0" d="m144.21 970.1c4.3309-1.2339 60.632-25.912 60.632-25.912l6.8572 6.4164-111.16 34.55-5.0527-8.8843z"/>
    <path id="path3849" d="m140.24 959.24c-4.3309 1.2339-60.632 25.912-60.632 25.912l-6.8572-6.4164 111.16-34.55 5.0527 8.8843z" style="stroke:#000000;stroke-width:.10445px;fill:#816647" inkscape:connector-curvature="0"/>
    <path id="path3851" style="stroke:#000000;stroke-width:.10445px;fill:#816647" inkscape:connector-curvature="0" d="m144.21 958c4.3309 1.2339 60.632 25.912 60.632 25.912l6.8572-6.4164-111.16-34.55-5.0527 8.8843z"/>
    <path id="path3853" style="stroke:#000000;stroke-width:.052227px;fill:#816647" inkscape:connector-curvature="0" d="m147.14 964.64c-2.2634-0.0747-32.889-5.2174-32.889-5.2174l-2.419 3.9242 58.493 3.3078 1.2041-4.8989z"/>
    <path id="path3855" d="m136.22 964.64c2.2634-0.0747 32.889-5.2174 32.889-5.2174l2.419 3.9242-58.493 3.3078-1.2041-4.8989z" style="stroke:#000000;stroke-width:.052227px;fill:#816647" inkscape:connector-curvature="0"/>
    <path id="path3857" d="m147.14 966.5c-2.2634-0.0747-32.889-5.2174-32.889-5.2174l-2.419 3.9242 58.493 3.3078 1.2041-4.8989z" style="stroke:#000000;stroke-width:.052227px;fill:#d9bb7a" inkscape:connector-curvature="0"/>
    <path id="path3859" style="stroke:#000000;stroke-width:.052227px;fill:#d9bb7a" inkscape:connector-curvature="0" d="m136.22 966.5c2.2634-0.0747 32.889-5.2174 32.889-5.2174l2.419 3.9242-58.493 3.3078-1.2041-4.8989z"/>
    <path id="path3861" style="stroke:#000000;stroke-width:.052227px;fill:#d9bb7a" inkscape:connector-curvature="0" d="m147.14 968.36c-2.2634-0.0747-32.889-5.2174-32.889-5.2174l-2.419 3.9242 58.493 3.3078 1.2041-4.8989z"/>
    <path id="path3863" d="m136.22 968.36c2.2634-0.0747 32.889-5.2174 32.889-5.2174l2.419 3.9242-58.493 3.3078-1.2041-4.8989z" style="stroke:#000000;stroke-width:.052227px;fill:#d9bb7a" inkscape:connector-curvature="0"/>
    <path id="path3865" d="m147.14 969.29c-2.2634-0.0747-32.889-5.2174-32.889-5.2174l-2.419 3.9242 58.493 3.3078 1.2041-4.8989z" style="stroke:#000000;stroke-width:.052227px;fill:#d9bb7a" inkscape:connector-curvature="0"/>
    <path id="path3867" style="stroke:#000000;stroke-width:.052227px;fill:#d9bb7a" inkscape:connector-curvature="0" d="m136.22 969.29c2.2634-0.0747 32.889-5.2174 32.889-5.2174l2.419 3.9242-58.493 3.3078-1.2041-4.8989z"/>
  </g>
  <metadata>
    <rdf:RDF>
      <cc:Work>
        <dc:format>image/svg+xml</dc:format>
        <dc:type rdf:resource="http://purl.org/dc/dcmitype/StillImage"/>
        <cc:license rdf:resource="http://creativecommons.org/licenses/publicdomain/"/>
        <dc:publisher>
          <cc:Agent rdf:about="http://openclipart.org/">
            <dc:title>Openclipart</dc:title>
          </cc:Agent>
        </dc:publisher>
        <dc:title>fire</dc:title>
        <dc:date>2010-10-06T19:59:55</dc:date>
        <dc:description/>
        <dc:source>https://openclipart.org/detail/88963/fire-by-netalloy</dc:source>
        <dc:creator>
          <cc:Agent>
            <dc:title>netalloy</dc:title>
          </cc:Agent>
        </dc:creator>
        <dc:subject>
          <rdf:Bag>
            <rdf:li>burning</rdf:li>
            <rdf:li>camp fire</rdf:li>
            <rdf:li>cremation</rdf:li>
            <rdf:li>fire</rdf:li>
            <rdf:li>flame</rdf:li>
            <rdf:li>heat</rdf:li>
            <rdf:li>ritual</rdf:li>
          </rdf:Bag>
        </dc:subject>
      </cc:Work>
      <cc:License rdf:about="http://creativecommons.org/licenses/publicdomain/">
        <cc:permits rdf:resource="http://creativecommons.org/ns#Reproduction"/>
        <cc:permits rdf:resource="http://creativecommons.org/ns#Distribution"/>
        <cc:permits rdf:resource="http://creativecommons.org/ns#DerivativeWorks"/>
      </cc:License>
    </rdf:RDF>
  </metadata>
</svg>